# xmcd
#
# Track frame offsets: 
#        150
#        23771
#        46736
#        71954
#        87264
#        109206
#        134388
#        154829
#        174265
#        196806
#        212711
#
# Disc length: 3096 seconds
#
# Revision: 0
# Processed by: cddbd v1.4PL0 Copyright (c) Steve Scherf et al.
# Submitted via: ExactAudioCopy v0.90a11
#
DISCID=920c160b
DTITLE=Lauren Ellis - Feels Like Family
DYEAR=1900
DGENRE=
TTITLE0=Dry As A Bone
TTITLE1=Shades Of Blue
TTITLE2=End Of Our Line
TTITLE3=Afraid To Love
TTITLE4=Just To Be With You
TTITLE5=Feels Like Family
TTITLE6=When I See You
TTITLE7=Livin' In A Dream
TTITLE8=Setting Son
TTITLE9=Oahu Song
TTITLE10=Extra Mile
EXTD=
EXTT0=
EXTT1=
EXTT2=
EXTT3=
EXTT4=
EXTT5=
EXTT6=
EXTT7=
EXTT8=
EXTT9=
EXTT10=
PLAYORDER=
